<svg
  xmlns="http://www.w3.org/2000/svg"
  width="24"
  height="24"
  viewBox="0 0 24 24"
  fill="none"
  stroke="currentColor"
  stroke-width="2"
  stroke-linecap="round"
  stroke-linejoin="round"
>
  <path stroke="none" d="M0 0h24v24H0z" fill="none" />
  <path d="M6.2 5.5c2.1 1.6 4.4 4.9 5.8 7.1c1.4 -2.2 3.7 -5.5 5.8 -7.1c1.5 -1.1 3.9 -2 3.9 .8c0 .6 -.3 4.6 -.5 5.3c-.7 2.3 -3 2.9 -5 2.6c3.5 .6 4.3 2.5 2.4 4.4c-3.6 3.5 -5.2 -.9 -5.6 -2c-.1 -.3 -.1 -.4 -.2 -.4s-.1 .1 -.2 .4c-.4 1.1 -2 5.5 -5.6 2c-1.9 -1.9 -1.1 -3.8 2.4 -4.4c-2 .3 -4.3 -.3 -5 -2.6c-.2 -.7 -.5 -4.7 -.5 -5.3c0 -2.8 2.4 -1.9 3.9 -.8" />
</svg>
