<svg
  xmlns="http://www.w3.org/2000/svg"
  width="24"
  height="24"
  viewBox="0 0 24 24"
  fill="none"
  stroke="currentColor"
  stroke-width="2"
  stroke-linecap="round"
  stroke-linejoin="round"
>
  <path stroke="none" d="M0 0h24v24H0z" fill="none" />
  <path d="M22 5.8c-.7 .3 -1.5 .5 -2.3 .6a4 4 0 0 0 1.7 -2.2a7.8 7.8 0 0 1 -2.5 1a4 4 0 0 0 -6.9 3.6a11.3 11.3 0 0 1 -8.2 -4.2a4 4 0 0 0 1.2 5.3a3.8 3.8 0 0 1 -1.8 -.5v.1a4 4 0 0 0 3.2 3.9a4.2 4.2 0 0 1 -1.8 .1a4 4 0 0 0 3.7 2.8a8.1 8.1 0 0 1 -5 1.7h-1a11.5 11.5 0 0 0 6.3 1.8c7.5 0 11.8 -6.5 11.5 -12.3a8.5 8.5 0 0 0 2.1 -2.2" />
</svg>
